<?xml version="1.0" standalone="no"?>
<!DOCTYPE svg PUBLIC "-//W3C//DTD SVG 20010904//EN"
 "http://www.w3.org/TR/2001/REC-SVG-20010904/DTD/svg10.dtd">
<svg version="1.0" xmlns="http://www.w3.org/2000/svg"
 width="11588.000000pt" height="2027.000000pt" viewBox="0 0 11588.000000 2027.000000"
 preserveAspectRatio="xMidYMid meet">

<g transform="translate(0.000000,2027.000000) scale(0.100000,-0.100000)"
fill="#000000" stroke="none">
<path d="M53095 20259 c-22 -4 -161 -22 -310 -39 -1042 -120 -1889 -325 -2745
-665 -1268 -504 -2346 -1218 -3340 -2214 -1308 -1309 -2207 -2847 -2683 -4586
-169 -619 -274 -1246 -329 -1975 -17 -222 -17 -1012 0 -1245 100 -1387 438
-2642 1042 -3870 653 -1326 1541 -2470 2605 -3356 1151 -957 2520 -1633 4119
-2034 247 -62 476 -107 811 -159 127 -20 334 -53 460 -73 l230 -38 863 -3
c753 -2 870 0 922 13 33 9 151 27 263 40 2067 248 3841 1009 5338 2291 429
367 927 875 1314 1339 693 832 1229 1716 1613 2660 312 769 525 1592 627 2425
59 488 80 892 72 1425 -18 1207 -204 2313 -558 3317 -1026 2908 -3402 5257
-6294 6223 -616 206 -1045 303 -1930 435 -225 34 -464 70 -530 81 -111 18
-172 19 -820 18 -385 -1 -718 -5 -740 -10z m1170 -4429 c1196 -88 2290 -534
3230 -1316 167 -139 540 -512 679 -679 419 -503 729 -1022 961 -1610 445
-1128 526 -2400 225 -3551 -374 -1430 -1319 -2680 -2605 -3446 -1078 -642
-2321 -909 -3575 -768 -1102 125 -2149 573 -3007 1288 -612 510 -1110 1141
-1463 1857 -312 632 -487 1241 -567 1980 -24 226 -24 860 0 1095 75 716 253
1341 557 1958 408 827 979 1516 1710 2063 872 653 1921 1046 3015 1128 162 12
678 13 840 1z"/>
<path d="M9225 20250 c-67 -14 -150 -49 -216 -91 -189 -123 -462 -477 -663
-862 -36 -67 -299 -633 -586 -1257 -2110 -4587 -3159 -6869 -5869 -12774
l-1891 -4120 0 -197 0 -197 72 -67 c75 -69 165 -119 273 -151 118 -36 3263
-29 3592 7 105 11 208 43 291 90 81 46 218 187 269 279 23 41 306 653 629
1360 1504 3297 3937 8620 4080 8928 59 127 111 232 114 232 10 0 -19 63 1240
-2690 1570 -3432 2696 -5898 3414 -7480 59 -129 128 -268 153 -309 169 -270
388 -402 723 -432 75 -6 687 -9 1760 -7 1537 3 1649 4 1705 21 207 61 314 178
331 365 12 129 -28 295 -130 537 -35 83 -375 827 -756 1655 -380 828 -1172
2551 -1760 3830 -2055 4474 -3601 7835 -5015 10905 -372 809 -702 1515 -732
1570 -160 291 -411 610 -576 731 -147 109 -308 153 -452 124z"/>
<path d="M23580 20224 c-240 -63 -416 -252 -523 -560 -62 -178 -88 -320 -296
-1604 -50 -305 -286 -1736 -526 -3180 -1453 -8754 -1911 -11521 -2169 -13115
-61 -373 -70 -487 -62 -782 7 -267 14 -304 69 -362 44 -46 105 -71 185 -77 37
-2 393 -11 792 -19 399 -9 1099 -24 1555 -35 1123 -27 1150 -27 1215 -11 161
40 258 125 343 302 64 133 101 233 127 344 22 92 112 715 235 1625 251 1857
941 6889 948 6913 5 18 171 -296 1067 -2023 1423 -2740 1833 -3527 2680 -5145
207 -396 437 -837 510 -980 363 -709 589 -1067 894 -1415 l88 -100 148 0 148
0 249 333 c389 516 373 490 830 1357 985 1864 3346 6374 3909 7467 148 287
272 519 275 515 3 -4 34 -214 68 -467 34 -253 211 -1542 392 -2865 181 -1323
395 -2884 475 -3470 157 -1154 237 -1713 260 -1829 37 -180 106 -315 210 -411
69 -63 138 -100 250 -132 77 -22 91 -23 474 -22 478 2 2881 59 3035 73 142 13
193 31 244 86 63 68 92 193 92 400 1 129 7 88 -177 1230 -109 676 -275 1690
-783 4775 -1265 7678 -1966 11900 -2021 12173 -100 488 -198 732 -353 872
-244 221 -616 201 -947 -51 -176 -134 -314 -337 -445 -654 -79 -191 113 167
-2403 -4475 -3076 -5676 -3669 -6768 -3717 -6848 -39 -65 -55 -84 -62 -75 -19
24 -1976 3629 -4395 8098 -990 1828 -1008 1861 -1323 2475 -300 583 -460 887
-550 1040 -193 329 -456 560 -712 626 -91 23 -223 24 -303 3z"/>
<path d="M106415 19721 c-90 -28 -113 -38 -185 -86 -193 -128 -493 -533 -696
-937 -64 -127 -190 -401 -1451 -3138 -2058 -4466 -6322 -13747 -6490 -14125
-170 -381 -326 -754 -354 -845 -17 -54 -23 -100 -24 -165 0 -78 4 -98 28 -150
35 -75 118 -160 219 -226 l77 -49 1829 0 c1758 0 1831 1 1883 19 220 75 388
229 533 487 24 43 320 684 656 1424 1103 2424 4019 8808 4076 8922 l28 58 39
-67 c43 -75 2448 -5331 4248 -9286 252 -554 468 -1026 480 -1050 49 -95 118
-187 203 -272 95 -94 180 -150 301 -201 l70 -29 1823 -3 1822 -2 63 31 c152
77 244 166 274 268 34 118 -3 316 -106 575 -65 163 -3587 7827 -7601 16541
-342 743 -648 1400 -682 1460 -179 329 -458 671 -632 774 -139 83 -306 111
-431 72z"/>
<path d="M85895 19709 c-1807 -21 -1973 -25 -2057 -47 -247 -67 -345 -203
-369 -516 -6 -87 -9 -3266 -7 -9376 4 -8646 5 -9250 21 -9319 58 -256 206
-373 504 -400 59 -5 252 -13 428 -16 176 -3 527 -12 780 -20 674 -22 4270 -22
4471 0 77 8 238 21 359 30 1120 79 1831 174 2565 341 730 166 1286 366 1776
639 1428 793 2349 2120 2573 3705 77 542 71 1151 -15 1707 -149 964 -657 1793
-1559 2543 -503 419 -1119 786 -1760 1050 -71 30 -133 57 -138 60 -4 3 68 46
160 95 693 366 1132 669 1596 1099 540 502 859 987 992 1510 47 187 94 533
131 971 21 258 30 997 15 1221 -104 1468 -775 2619 -1986 3406 -947 616 -2409
1050 -4100 1217 -1011 101 -2102 125 -4380 100z m3930 -4109 c820 -54 1322
-228 1674 -581 261 -260 424 -606 502 -1060 27 -158 37 -515 20 -670 -46 -398
-192 -756 -444 -1089 -268 -352 -617 -556 -1032 -600 -79 -8 -451 -10 -1335
-8 -1097 3 -1230 5 -1272 19 -92 32 -135 82 -157 181 -7 28 -11 695 -11 1803
-1 1566 0 1765 14 1803 27 75 75 122 146 142 28 8 661 47 1025 63 174 8 734 6
870 -3z m320 -7631 c881 -56 1423 -249 1801 -642 260 -269 428 -655 484 -1109
19 -148 8 -465 -19 -603 -77 -380 -264 -709 -586 -1030 -208 -207 -373 -315
-595 -389 -212 -70 -137 -67 -1795 -64 -1425 3 -1492 4 -1532 22 -24 10 -56
33 -72 52 -63 71 -60 -29 -62 1812 l-1 1679 21 49 c42 95 106 140 251 178 101
26 74 25 1170 56 295 9 707 4 935 -11z"/>
<path d="M67175 19550 c-245 -37 -353 -154 -379 -410 -3 -30 -6 -4253 -7
-9385 l-2 -9330 21 -80 c33 -122 76 -199 152 -276 l67 -69 6114 0 6115 0 61
62 c78 80 117 143 151 243 l27 80 0 1805 c0 1682 -1 1810 -17 1873 -24 93 -58
155 -111 204 -56 52 -88 68 -185 96 l-77 22 -3947 3 -3948 2 0 1595 0 1595
3208 0 c2142 0 3229 4 3272 10 210 34 309 119 358 307 16 63 17 191 17 1873 0
1374 -3 1817 -12 1856 -36 151 -92 233 -196 284 -131 64 100 60 -3428 60
l-3209 0 0 1595 0 1595 3973 3 c3717 2 3976 4 4042 20 189 46 269 134 307 334
10 54 13 436 13 1853 0 1633 -1 1791 -17 1856 -48 206 -140 289 -358 324 -76
12 -11925 12 -12005 0z"/>
</g>
</svg>
