<?xml version="1.0" standalone="no"?>
<!DOCTYPE svg PUBLIC "-//W3C//DTD SVG 20010904//EN"
 "http://www.w3.org/TR/2001/REC-SVG-20010904/DTD/svg10.dtd">
<svg version="1.0" xmlns="http://www.w3.org/2000/svg"
 width="1977.000000pt" height="1977.000000pt" viewBox="0 0 1977.000000 1977.000000"
 preserveAspectRatio="xMidYMid meet">

<g transform="translate(0.000000,1977.000000) scale(0.100000,-0.100000)"
fill="#000000" stroke="none">
<path d="M9795 19721 c-90 -28 -113 -38 -185 -86 -193 -128 -493 -533 -696
-937 -64 -127 -190 -401 -1451 -3138 -2058 -4466 -6322 -13747 -6490 -14125
-170 -381 -326 -754 -354 -845 -17 -54 -23 -100 -24 -165 0 -78 4 -98 28 -150
35 -75 118 -160 219 -226 l77 -49 1829 0 c1758 0 1831 1 1883 19 220 75 388
229 533 487 24 43 320 684 656 1424 1103 2424 4019 8808 4076 8922 l28 58 39
-67 c43 -75 2448 -5331 4248 -9286 252 -554 468 -1026 480 -1050 49 -95 118
-187 203 -272 95 -94 180 -150 301 -201 l70 -29 1823 -3 1822 -2 63 31 c152
77 244 166 274 268 34 118 -3 316 -106 575 -65 163 -3587 7827 -7601 16541
-342 743 -648 1400 -682 1460 -179 329 -458 671 -632 774 -139 83 -306 111
-431 72z"/>
</g>
</svg>
